<svg xmlns="http://www.w3.org/2000/svg" width="512" height="512" viewBox="0 0 512 512" version="1.1">
	<path d="M 238 6.584 C 236.075 6.808, 230.225 7.479, 225 8.076 C 162.069 15.262, 101.703 49.076, 60.802 100.051 C 32.087 135.838, 14.530 177.394, 7.800 225.500 C 6.174 237.122, 6.174 274.878, 7.800 286.500 C 13.536 327.500, 26.213 361.495, 48.009 394.322 C 80.217 442.830, 128.181 478.452, 184 495.318 C 208.510 502.724, 227.926 505.459, 256 505.459 C 284.074 505.459, 303.490 502.724, 328 495.318 C 400.184 473.506, 458.775 420.252, 487.344 350.486 C 500.081 319.382, 505.459 291.334, 505.459 256 C 505.459 244.150, 504.894 230.460, 504.200 225.500 C 498.464 184.500, 485.787 150.505, 463.991 117.678 C 423.934 57.349, 361.514 18.452, 288 8.010 C 280.198 6.902, 244.110 5.872, 238 6.584 M 262 90.748 L 262 154.804 268.250 155.488 C 277.024 156.448, 289.284 159.651, 297.398 163.103 C 301.192 164.717, 304.394 165.916, 304.514 165.768 C 305.644 164.378, 368 55.651, 368 55.072 C 368 54.170, 351.909 46.503, 340.741 42.084 C 321.123 34.321, 294.447 28.437, 273.842 27.329 L 262 26.693 262 90.748 M 374.600 62.250 C 373.804 63.487, 359.393 88.350, 342.575 117.500 L 311.997 170.500 314.738 172.500 C 324.825 179.860, 333.286 188.336, 340.582 198.391 L 342.665 201.260 395.082 171.014 C 423.912 154.378, 448.955 139.888, 450.733 138.813 L 453.965 136.858 449.111 129.679 C 431.295 103.331, 410.146 82.007, 385.389 65.431 C 380.927 62.444, 377 60, 376.662 60 C 376.323 60, 375.395 61.013, 374.600 62.250 M 409 173.094 C 382.325 188.508, 357.520 202.878, 353.879 205.027 L 347.258 208.936 350.731 217.587 C 354.246 226.342, 357.963 241.791, 357.987 247.750 L 358 251 422.423 251 L 486.846 251 486.351 243.250 C 484.971 221.614, 480.428 198.957, 473.468 179 C 469.729 168.278, 459.184 144.972, 458.100 145.035 C 457.770 145.054, 435.675 157.681, 409 173.094 M 357.624 266.365 C 356.740 274.995, 353.529 286.878, 349.945 294.782 C 348.315 298.375, 347.099 301.430, 347.241 301.571 C 348.276 302.591, 457.096 365, 457.840 365 C 459.913 365, 472.553 336.082, 476.854 321.500 C 481.759 304.868, 485.253 284.803, 486.300 267.250 L 486.733 260 422.505 260 L 358.276 260 357.624 266.365 M 340.504 312.262 C 336.701 318.700, 321.548 333.321, 312.183 339.588 C 311.848 339.813, 374.696 448.965, 375.903 450.255 C 376.626 451.027, 388.615 443.213, 400.096 434.487 C 415.346 422.897, 439.261 396.445, 450.296 378.961 L 453.792 373.422 403.701 344.461 C 376.151 328.532, 351.082 314.059, 347.992 312.298 L 342.375 309.095 340.504 312.262 M 298.786 346.705 C 292.230 349.903, 277.850 353.853, 269.500 354.749 L 262.500 355.500 262.500 419.500 L 262.500 483.500 271.500 483.178 C 298.469 482.214, 329.420 474.336, 356.593 461.519 C 365.370 457.379, 368.084 455.660, 367.646 454.519 C 366.632 451.878, 305.743 346.547, 304.597 345.453 C 303.827 344.717, 302.096 345.090, 298.786 346.705" stroke="none" fill="black" fill-rule="evenodd"/>
</svg>